<svg width="1659" height="999" xmlns="http://www.w3.org/2000/svg" xmlns:xlink="http://www.w3.org/1999/xlink" overflow="hidden"><defs><clipPath id="clip0"><rect x="2200" y="316" width="1659" height="999"/></clipPath><clipPath id="clip1"><rect x="2204" y="318" width="1650" height="990"/></clipPath><clipPath id="clip2"><rect x="2204" y="318" width="1650" height="990"/></clipPath><clipPath id="clip3"><rect x="2335" y="368" width="1131" height="837"/></clipPath><clipPath id="clip4"><rect x="2204" y="318" width="1650" height="990"/></clipPath><clipPath id="clip5"><rect x="2335" y="368" width="1131" height="837"/></clipPath><clipPath id="clip6"><rect x="2204" y="318" width="1650" height="990"/></clipPath><clipPath id="clip7"><rect x="2335" y="368" width="1131" height="837"/></clipPath><clipPath id="clip8"><rect x="2204" y="318" width="1650" height="990"/></clipPath><clipPath id="clip9"><rect x="2204" y="318" width="1650" height="990"/></clipPath><clipPath id="clip10"><rect x="2204" y="318" width="1650" height="990"/></clipPath><clipPath id="clip11"><rect x="2204" y="318" width="1650" height="990"/></clipPath><clipPath id="clip12"><rect x="2204" y="318" width="1650" height="990"/></clipPath><clipPath id="clip13"><rect x="2204" y="318" width="1650" height="990"/></clipPath><clipPath id="clip14"><rect x="2204" y="318" width="1650" height="990"/></clipPath><clipPath id="clip15"><rect x="2204" y="318" width="1650" height="990"/></clipPath><clipPath id="clip16"><rect x="2204" y="318" width="1650" height="990"/></clipPath><clipPath id="clip17"><rect x="2204" y="318" width="1650" height="990"/></clipPath><clipPath id="clip18"><rect x="2204" y="318" width="1650" height="990"/></clipPath><clipPath id="clip19"><rect x="2204" y="318" width="1650" height="990"/></clipPath><clipPath id="clip20"><rect x="2204" y="318" width="1650" height="990"/></clipPath><clipPath id="clip21"><rect x="2204" y="318" width="1650" height="990"/></clipPath><clipPath id="clip22"><rect x="2204" y="318" width="1650" height="990"/></clipPath><clipPath id="clip23"><rect x="2204" y="318" width="1650" height="990"/></clipPath><clipPath id="clip24"><rect x="2204" y="318" width="1650" height="990"/></clipPath><clipPath id="clip25"><rect x="2204" y="318" width="1650" height="990"/></clipPath><clipPath id="clip26"><rect x="2204" y="318" width="1650" height="990"/></clipPath><clipPath id="clip27"><rect x="2204" y="318" width="1650" height="990"/></clipPath><clipPath id="clip28"><rect x="2204" y="318" width="1650" height="990"/></clipPath><clipPath id="clip29"><rect x="2204" y="318" width="1650" height="990"/></clipPath><clipPath id="clip30"><rect x="2204" y="318" width="1650" height="990"/></clipPath><clipPath id="clip31"><rect x="2204" y="318" width="1650" height="990"/></clipPath><clipPath id="clip32"><rect x="2204" y="318" width="1650" height="990"/></clipPath><clipPath id="clip33"><rect x="2204" y="318" width="1650" height="990"/></clipPath><clipPath id="clip34"><rect x="2204" y="318" width="1650" height="990"/></clipPath><clipPath id="clip35"><rect x="2204" y="318" width="1650" height="990"/></clipPath><clipPath id="clip36"><rect x="2204" y="318" width="1650" height="990"/></clipPath><clipPath id="clip37"><rect x="2204" y="318" width="1650" height="990"/></clipPath></defs><g clip-path="url(#clip0)" transform="translate(-2200 -316)"><rect x="2205" y="319" width="1650" height="990" fill="#FFFFFF" fill-opacity="1"/><g clip-path="url(#clip1)"><path d="M2335.5 1063.54 3463.5 1063.54M2335.5 924.531 3463.5 924.531M2335.5 785.526 3463.5 785.526M2335.5 646.521 3463.5 646.521M2335.5 507.517 3463.5 507.517M2335.5 368.5 3463.5 368.5" stroke="#D9D9D9" stroke-width="3.4375" stroke-linecap="butt" stroke-linejoin="round" stroke-miterlimit="10" stroke-opacity="1" fill="none" fill-rule="nonzero"/></g><g clip-path="url(#clip2)"><path d="M2335.5 1202.5 3463.5 1202.5" stroke="#D9D9D9" stroke-width="3.4375" stroke-linecap="butt" stroke-linejoin="round" stroke-miterlimit="10" stroke-opacity="1" fill="none" fill-rule="evenodd"/></g><g clip-path="url(#clip3)"><path d="M2382 813.027 2476.08 709.023 2570.08 813.027 2664.09 709.023 2758.09 431 2852.09 508.017 2946.1 598.02 3040.1 702.023 3134.1 793.026 3228.11 751.025 3322.11 827.027 3416 945" stroke="#4472C4" stroke-width="10.3125" stroke-linecap="round" stroke-linejoin="round" stroke-miterlimit="10" stroke-opacity="1" fill="none" fill-rule="nonzero"/></g><g clip-path="url(#clip4)"><path d="M2393.08 813.041C2393.08 819.116 2388.16 824.041 2382.08 824.041 2376.01 824.041 2371.08 819.116 2371.08 813.041 2371.08 806.967 2376.01 802.042 2382.08 802.042 2388.16 802.042 2393.08 806.967 2393.08 813.041Z" stroke="#4472C4" stroke-width="3.4375" stroke-linecap="butt" stroke-linejoin="round" stroke-miterlimit="10" stroke-opacity="1" fill="#4472C4" fill-rule="nonzero" fill-opacity="1"/><path d="M2487.08 709.041C2487.08 715.116 2482.16 720.041 2476.08 720.041 2470.01 720.041 2465.08 715.116 2465.08 709.041 2465.08 702.966 2470.01 698.042 2476.08 698.042 2482.16 698.042 2487.08 702.966 2487.08 709.041Z" stroke="#4472C4" stroke-width="3.4375" stroke-linecap="butt" stroke-linejoin="round" stroke-miterlimit="10" stroke-opacity="1" fill="#4472C4" fill-rule="nonzero" fill-opacity="1"/><path d="M2581.08 813.041C2581.08 819.116 2576.16 824.041 2570.08 824.041 2564.01 824.041 2559.08 819.116 2559.08 813.041 2559.08 806.967 2564.01 802.042 2570.08 802.042 2576.16 802.042 2581.08 806.967 2581.08 813.041Z" stroke="#4472C4" stroke-width="3.4375" stroke-linecap="butt" stroke-linejoin="round" stroke-miterlimit="10" stroke-opacity="1" fill="#4472C4" fill-rule="nonzero" fill-opacity="1"/><path d="M2675.08 709.041C2675.08 715.116 2670.16 720.041 2664.08 720.041 2658.01 720.041 2653.08 715.116 2653.08 709.041 2653.08 702.966 2658.01 698.042 2664.08 698.042 2670.16 698.042 2675.08 702.966 2675.08 709.041Z" stroke="#4472C4" stroke-width="3.4375" stroke-linecap="butt" stroke-linejoin="round" stroke-miterlimit="10" stroke-opacity="1" fill="#4472C4" fill-rule="nonzero" fill-opacity="1"/><path d="M2769.08 431.041C2769.08 437.116 2764.16 442.041 2758.08 442.041 2752.01 442.041 2747.08 437.116 2747.08 431.041 2747.08 424.966 2752.01 420.042 2758.08 420.042 2764.16 420.042 2769.08 424.966 2769.08 431.041Z" stroke="#4472C4" stroke-width="3.4375" stroke-linecap="butt" stroke-linejoin="round" stroke-miterlimit="10" stroke-opacity="1" fill="#4472C4" fill-rule="nonzero" fill-opacity="1"/><path d="M2863.08 507.041C2863.08 513.116 2858.16 518.041 2852.08 518.041 2846.01 518.041 2841.08 513.116 2841.08 507.041 2841.08 500.966 2846.01 496.042 2852.08 496.042 2858.16 496.042 2863.08 500.966 2863.08 507.041Z" stroke="#4472C4" stroke-width="3.4375" stroke-linecap="butt" stroke-linejoin="round" stroke-miterlimit="10" stroke-opacity="1" fill="#4472C4" fill-rule="nonzero" fill-opacity="1"/><path d="M2957.08 598.041C2957.08 604.116 2952.16 609.041 2946.08 609.041 2940.01 609.041 2935.08 604.116 2935.08 598.041 2935.08 591.966 2940.01 587.042 2946.08 587.042 2952.16 587.042 2957.08 591.966 2957.08 598.041Z" stroke="#4472C4" stroke-width="3.4375" stroke-linecap="butt" stroke-linejoin="round" stroke-miterlimit="10" stroke-opacity="1" fill="#4472C4" fill-rule="nonzero" fill-opacity="1"/><path d="M3051.08 702.041C3051.08 708.116 3046.16 713.041 3040.08 713.041 3034.01 713.041 3029.08 708.116 3029.08 702.041 3029.08 695.967 3034.01 691.042 3040.08 691.042 3046.16 691.042 3051.08 695.967 3051.08 702.041Z" stroke="#4472C4" stroke-width="3.4375" stroke-linecap="butt" stroke-linejoin="round" stroke-miterlimit="10" stroke-opacity="1" fill="#4472C4" fill-rule="nonzero" fill-opacity="1"/><path d="M3145.08 792.042C3145.08 798.116 3140.16 803.041 3134.08 803.041 3128.01 803.041 3123.08 798.116 3123.08 792.042 3123.08 785.967 3128.01 781.042 3134.08 781.042 3140.16 781.042 3145.08 785.967 3145.08 792.042Z" stroke="#4472C4" stroke-width="3.4375" stroke-linecap="butt" stroke-linejoin="round" stroke-miterlimit="10" stroke-opacity="1" fill="#4472C4" fill-rule="nonzero" fill-opacity="1"/><path d="M3239.08 750.041C3239.08 756.116 3234.16 761.041 3228.08 761.041 3222.01 761.041 3217.08 756.116 3217.08 750.041 3217.08 743.966 3222.01 739.042 3228.08 739.042 3234.16 739.042 3239.08 743.966 3239.08 750.041Z" stroke="#4472C4" stroke-width="3.4375" stroke-linecap="butt" stroke-linejoin="round" stroke-miterlimit="10" stroke-opacity="1" fill="#4472C4" fill-rule="nonzero" fill-opacity="1"/><path d="M3333.08 827.041C3333.08 833.116 3328.16 838.041 3322.08 838.041 3316.01 838.041 3311.08 833.116 3311.08 827.041 3311.08 820.966 3316.01 816.042 3322.08 816.042 3328.16 816.042 3333.08 820.966 3333.08 827.041Z" stroke="#4472C4" stroke-width="3.4375" stroke-linecap="butt" stroke-linejoin="round" stroke-miterlimit="10" stroke-opacity="1" fill="#4472C4" fill-rule="nonzero" fill-opacity="1"/><path d="M3427.08 945.041C3427.08 951.116 3422.16 956.041 3416.08 956.041 3410.01 956.041 3405.08 951.116 3405.08 945.041 3405.08 938.967 3410.01 934.042 3416.08 934.042 3422.16 934.042 3427.08 938.967 3427.08 945.041Z" stroke="#4472C4" stroke-width="3.4375" stroke-linecap="butt" stroke-linejoin="round" stroke-miterlimit="10" stroke-opacity="1" fill="#4472C4" fill-rule="nonzero" fill-opacity="1"/></g><g clip-path="url(#clip5)"><path d="M2382 973.032 2476.08 931.031 2570.08 973.032 2664.09 924.03 2758.09 841 2852.09 862.028 2946.1 855.028 3040.1 876.029 3134.1 966.032 3228.11 855.028 3322.11 987 3416 959.031" stroke="#ED7D31" stroke-width="10.3125" stroke-linecap="round" stroke-linejoin="round" stroke-miterlimit="10" stroke-opacity="1" fill="none" fill-rule="nonzero"/></g><g clip-path="url(#clip6)"><path d="M2393.08 973.041C2393.08 979.116 2388.16 984.041 2382.08 984.041 2376.01 984.041 2371.08 979.116 2371.08 973.041 2371.08 966.966 2376.01 962.042 2382.08 962.042 2388.16 962.042 2393.08 966.966 2393.08 973.041Z" stroke="#ED7D31" stroke-width="3.4375" stroke-linecap="butt" stroke-linejoin="round" stroke-miterlimit="10" stroke-opacity="1" fill="#ED7D31" fill-rule="nonzero" fill-opacity="1"/><path d="M2487.08 931.041C2487.08 937.116 2482.16 942.041 2476.08 942.041 2470.01 942.041 2465.08 937.116 2465.08 931.041 2465.08 924.966 2470.01 920.042 2476.08 920.042 2482.16 920.042 2487.08 924.966 2487.08 931.041Z" stroke="#ED7D31" stroke-width="3.4375" stroke-linecap="butt" stroke-linejoin="round" stroke-miterlimit="10" stroke-opacity="1" fill="#ED7D31" fill-rule="nonzero" fill-opacity="1"/><path d="M2581.08 973.041C2581.08 979.116 2576.16 984.041 2570.08 984.041 2564.01 984.041 2559.08 979.116 2559.08 973.041 2559.08 966.966 2564.01 962.042 2570.08 962.042 2576.16 962.042 2581.08 966.966 2581.08 973.041Z" stroke="#ED7D31" stroke-width="3.4375" stroke-linecap="butt" stroke-linejoin="round" stroke-miterlimit="10" stroke-opacity="1" fill="#ED7D31" fill-rule="nonzero" fill-opacity="1"/><path d="M2675.08 924.042C2675.08 930.116 2670.16 935.041 2664.08 935.041 2658.01 935.041 2653.08 930.116 2653.08 924.042 2653.08 917.967 2658.01 913.042 2664.08 913.042 2670.16 913.042 2675.08 917.967 2675.08 924.042Z" stroke="#ED7D31" stroke-width="3.4375" stroke-linecap="butt" stroke-linejoin="round" stroke-miterlimit="10" stroke-opacity="1" fill="#ED7D31" fill-rule="nonzero" fill-opacity="1"/><path d="M2769.08 841.041C2769.08 847.116 2764.16 852.041 2758.08 852.041 2752.01 852.041 2747.08 847.116 2747.08 841.041 2747.08 834.966 2752.01 830.042 2758.08 830.042 2764.16 830.042 2769.08 834.966 2769.08 841.041Z" stroke="#ED7D31" stroke-width="3.4375" stroke-linecap="butt" stroke-linejoin="round" stroke-miterlimit="10" stroke-opacity="1" fill="#ED7D31" fill-rule="nonzero" fill-opacity="1"/><path d="M2863.08 861.041C2863.08 867.116 2858.16 872.041 2852.08 872.041 2846.01 872.041 2841.08 867.116 2841.08 861.041 2841.08 854.966 2846.01 850.042 2852.08 850.042 2858.16 850.042 2863.08 854.966 2863.08 861.041Z" stroke="#ED7D31" stroke-width="3.4375" stroke-linecap="butt" stroke-linejoin="round" stroke-miterlimit="10" stroke-opacity="1" fill="#ED7D31" fill-rule="nonzero" fill-opacity="1"/><path d="M2957.08 855.041C2957.08 861.116 2952.16 866.041 2946.08 866.041 2940.01 866.041 2935.08 861.116 2935.08 855.041 2935.08 848.966 2940.01 844.042 2946.08 844.042 2952.16 844.042 2957.08 848.966 2957.08 855.041Z" stroke="#ED7D31" stroke-width="3.4375" stroke-linecap="butt" stroke-linejoin="round" stroke-miterlimit="10" stroke-opacity="1" fill="#ED7D31" fill-rule="nonzero" fill-opacity="1"/><path d="M3051.08 875.041C3051.08 881.116 3046.16 886.041 3040.08 886.041 3034.01 886.041 3029.08 881.116 3029.08 875.041 3029.08 868.966 3034.01 864.042 3040.08 864.042 3046.16 864.042 3051.08 868.966 3051.08 875.041Z" stroke="#ED7D31" stroke-width="3.4375" stroke-linecap="butt" stroke-linejoin="round" stroke-miterlimit="10" stroke-opacity="1" fill="#ED7D31" fill-rule="nonzero" fill-opacity="1"/><path d="M3145.08 966.041C3145.08 972.116 3140.16 977.041 3134.08 977.041 3128.01 977.041 3123.08 972.116 3123.08 966.041 3123.08 959.967 3128.01 955.042 3134.08 955.042 3140.16 955.042 3145.08 959.967 3145.08 966.041Z" stroke="#ED7D31" stroke-width="3.4375" stroke-linecap="butt" stroke-linejoin="round" stroke-miterlimit="10" stroke-opacity="1" fill="#ED7D31" fill-rule="nonzero" fill-opacity="1"/><path d="M3239.08 855.041C3239.08 861.116 3234.16 866.041 3228.08 866.041 3222.01 866.041 3217.08 861.116 3217.08 855.041 3217.08 848.966 3222.01 844.042 3228.08 844.042 3234.16 844.042 3239.08 848.966 3239.08 855.041Z" stroke="#ED7D31" stroke-width="3.4375" stroke-linecap="butt" stroke-linejoin="round" stroke-miterlimit="10" stroke-opacity="1" fill="#ED7D31" fill-rule="nonzero" fill-opacity="1"/><path d="M3333.08 986.041C3333.08 992.116 3328.16 997.041 3322.08 997.041 3316.01 997.041 3311.08 992.116 3311.08 986.041 3311.08 979.966 3316.01 975.042 3322.08 975.042 3328.16 975.042 3333.08 979.966 3333.08 986.041Z" stroke="#ED7D31" stroke-width="3.4375" stroke-linecap="butt" stroke-linejoin="round" stroke-miterlimit="10" stroke-opacity="1" fill="#ED7D31" fill-rule="nonzero" fill-opacity="1"/><path d="M3427.08 959.041C3427.08 965.116 3422.16 970.041 3416.08 970.041 3410.01 970.041 3405.08 965.116 3405.08 959.041 3405.08 952.966 3410.01 948.042 3416.08 948.042 3422.16 948.042 3427.08 952.966 3427.08 959.041Z" stroke="#ED7D31" stroke-width="3.4375" stroke-linecap="butt" stroke-linejoin="round" stroke-miterlimit="10" stroke-opacity="1" fill="#ED7D31" fill-rule="nonzero" fill-opacity="1"/></g><g clip-path="url(#clip7)"><path d="M2382 1154 2476.08 1181.04 2570.08 1181.04 2664.09 1188.04 2758.09 1181.04 2852.09 1174.04 2946.1 1195 3040.1 1174.04 3134.1 1174.04M3322.11 1181.04 3416 1181.04" stroke="#A5A5A5" stroke-width="10.3125" stroke-linecap="round" stroke-linejoin="round" stroke-miterlimit="10" stroke-opacity="1" fill="none" fill-rule="nonzero"/></g><g clip-path="url(#clip8)"><path d="M2393.08 1153.04C2393.08 1159.12 2388.16 1164.04 2382.08 1164.04 2376.01 1164.04 2371.08 1159.12 2371.08 1153.04 2371.08 1146.97 2376.01 1142.04 2382.08 1142.04 2388.16 1142.04 2393.08 1146.97 2393.08 1153.04Z" stroke="#A5A5A5" stroke-width="3.4375" stroke-linecap="butt" stroke-linejoin="round" stroke-miterlimit="10" stroke-opacity="1" fill="#A5A5A5" fill-rule="nonzero" fill-opacity="1"/><path d="M2487.08 1181.04C2487.08 1187.12 2482.16 1192.04 2476.08 1192.04 2470.01 1192.04 2465.08 1187.12 2465.08 1181.04 2465.08 1174.97 2470.01 1170.04 2476.08 1170.04 2482.16 1170.04 2487.08 1174.97 2487.08 1181.04Z" stroke="#A5A5A5" stroke-width="3.4375" stroke-linecap="butt" stroke-linejoin="round" stroke-miterlimit="10" stroke-opacity="1" fill="#A5A5A5" fill-rule="nonzero" fill-opacity="1"/><path d="M2581.08 1181.04C2581.08 1187.12 2576.16 1192.04 2570.08 1192.04 2564.01 1192.04 2559.08 1187.12 2559.08 1181.04 2559.08 1174.97 2564.01 1170.04 2570.08 1170.04 2576.16 1170.04 2581.08 1174.97 2581.08 1181.04Z" stroke="#A5A5A5" stroke-width="3.4375" stroke-linecap="butt" stroke-linejoin="round" stroke-miterlimit="10" stroke-opacity="1" fill="#A5A5A5" fill-rule="nonzero" fill-opacity="1"/><path d="M2675.08 1188.04C2675.08 1194.12 2670.16 1199.04 2664.08 1199.04 2658.01 1199.04 2653.08 1194.12 2653.08 1188.04 2653.08 1181.97 2658.01 1177.04 2664.08 1177.04 2670.16 1177.04 2675.08 1181.97 2675.08 1188.04Z" stroke="#A5A5A5" stroke-width="3.4375" stroke-linecap="butt" stroke-linejoin="round" stroke-miterlimit="10" stroke-opacity="1" fill="#A5A5A5" fill-rule="nonzero" fill-opacity="1"/><path d="M2769.08 1181.04C2769.08 1187.12 2764.16 1192.04 2758.08 1192.04 2752.01 1192.04 2747.08 1187.12 2747.08 1181.04 2747.08 1174.97 2752.01 1170.04 2758.08 1170.04 2764.16 1170.04 2769.08 1174.97 2769.08 1181.04Z" stroke="#A5A5A5" stroke-width="3.4375" stroke-linecap="butt" stroke-linejoin="round" stroke-miterlimit="10" stroke-opacity="1" fill="#A5A5A5" fill-rule="nonzero" fill-opacity="1"/><path d="M2863.08 1174.04C2863.08 1180.12 2858.16 1185.04 2852.08 1185.04 2846.01 1185.04 2841.08 1180.12 2841.08 1174.04 2841.08 1167.97 2846.01 1163.04 2852.08 1163.04 2858.16 1163.04 2863.08 1167.97 2863.08 1174.04Z" stroke="#A5A5A5" stroke-width="3.4375" stroke-linecap="butt" stroke-linejoin="round" stroke-miterlimit="10" stroke-opacity="1" fill="#A5A5A5" fill-rule="nonzero" fill-opacity="1"/><path d="M2957.08 1195.04C2957.08 1201.12 2952.16 1206.04 2946.08 1206.04 2940.01 1206.04 2935.08 1201.12 2935.08 1195.04 2935.08 1188.97 2940.01 1184.04 2946.08 1184.04 2952.16 1184.04 2957.08 1188.97 2957.08 1195.04Z" stroke="#A5A5A5" stroke-width="3.4375" stroke-linecap="butt" stroke-linejoin="round" stroke-miterlimit="10" stroke-opacity="1" fill="#A5A5A5" fill-rule="nonzero" fill-opacity="1"/><path d="M3051.08 1174.04C3051.08 1180.12 3046.16 1185.04 3040.08 1185.04 3034.01 1185.04 3029.08 1180.12 3029.08 1174.04 3029.08 1167.97 3034.01 1163.04 3040.08 1163.04 3046.16 1163.04 3051.08 1167.97 3051.08 1174.04Z" stroke="#A5A5A5" stroke-width="3.4375" stroke-linecap="butt" stroke-linejoin="round" stroke-miterlimit="10" stroke-opacity="1" fill="#A5A5A5" fill-rule="nonzero" fill-opacity="1"/><path d="M3145.08 1174.04C3145.08 1180.12 3140.16 1185.04 3134.08 1185.04 3128.01 1185.04 3123.08 1180.12 3123.08 1174.04 3123.08 1167.97 3128.01 1163.04 3134.08 1163.04 3140.16 1163.04 3145.08 1167.97 3145.08 1174.04Z" stroke="#A5A5A5" stroke-width="3.4375" stroke-linecap="butt" stroke-linejoin="round" stroke-miterlimit="10" stroke-opacity="1" fill="#A5A5A5" fill-rule="nonzero" fill-opacity="1"/><path d="M3333.08 1181.04C3333.08 1187.12 3328.16 1192.04 3322.08 1192.04 3316.01 1192.04 3311.08 1187.12 3311.08 1181.04 3311.08 1174.97 3316.01 1170.04 3322.08 1170.04 3328.16 1170.04 3333.08 1174.97 3333.08 1181.04Z" stroke="#A5A5A5" stroke-width="3.4375" stroke-linecap="butt" stroke-linejoin="round" stroke-miterlimit="10" stroke-opacity="1" fill="#A5A5A5" fill-rule="nonzero" fill-opacity="1"/><path d="M3427.08 1181.04C3427.08 1187.12 3422.16 1192.04 3416.08 1192.04 3410.01 1192.04 3405.08 1187.12 3405.08 1181.04 3405.08 1174.97 3410.01 1170.04 3416.08 1170.04 3422.16 1170.04 3427.08 1174.97 3427.08 1181.04Z" stroke="#A5A5A5" stroke-width="3.4375" stroke-linecap="butt" stroke-linejoin="round" stroke-miterlimit="10" stroke-opacity="1" fill="#A5A5A5" fill-rule="nonzero" fill-opacity="1"/></g><g clip-path="url(#clip9)"><text fill="#595959" fill-opacity="1" font-family="Calibri,Calibri_MSFontService,sans-serif" font-style="normal" font-variant="normal" font-weight="400" font-stretch="normal" font-size="41" text-anchor="start" direction="ltr" writing-mode="lr-tb" unicode-bidi="normal" text-decoration="none" transform="matrix(1 0 0 1 2276.17 1213)">0</text></g><g clip-path="url(#clip10)"><text fill="#595959" fill-opacity="1" font-family="Calibri,Calibri_MSFontService,sans-serif" font-style="normal" font-variant="normal" font-weight="400" font-stretch="normal" font-size="41" text-anchor="start" direction="ltr" writing-mode="lr-tb" unicode-bidi="normal" text-decoration="none" transform="matrix(1 0 0 1 2255.27 1074)">20</text></g><g clip-path="url(#clip11)"><text fill="#595959" fill-opacity="1" font-family="Calibri,Calibri_MSFontService,sans-serif" font-style="normal" font-variant="normal" font-weight="400" font-stretch="normal" font-size="41" text-anchor="start" direction="ltr" writing-mode="lr-tb" unicode-bidi="normal" text-decoration="none" transform="matrix(1 0 0 1 2255.27 935)">40</text></g><g clip-path="url(#clip12)"><text fill="#595959" fill-opacity="1" font-family="Calibri,Calibri_MSFontService,sans-serif" font-style="normal" font-variant="normal" font-weight="400" font-stretch="normal" font-size="41" text-anchor="start" direction="ltr" writing-mode="lr-tb" unicode-bidi="normal" text-decoration="none" transform="matrix(1 0 0 1 2255.27 796)">60</text></g><g clip-path="url(#clip13)"><text fill="#595959" fill-opacity="1" font-family="Calibri,Calibri_MSFontService,sans-serif" font-style="normal" font-variant="normal" font-weight="400" font-stretch="normal" font-size="41" text-anchor="start" direction="ltr" writing-mode="lr-tb" unicode-bidi="normal" text-decoration="none" transform="matrix(1 0 0 1 2255.27 657)">80</text></g><g clip-path="url(#clip14)"><text fill="#595959" fill-opacity="1" font-family="Calibri,Calibri_MSFontService,sans-serif" font-style="normal" font-variant="normal" font-weight="400" font-stretch="normal" font-size="41" text-anchor="start" direction="ltr" writing-mode="lr-tb" unicode-bidi="normal" text-decoration="none" transform="matrix(1 0 0 1 2234.37 518)">100</text></g><g clip-path="url(#clip15)"><text fill="#595959" fill-opacity="1" font-family="Calibri,Calibri_MSFontService,sans-serif" font-style="normal" font-variant="normal" font-weight="400" font-stretch="normal" font-size="41" text-anchor="start" direction="ltr" writing-mode="lr-tb" unicode-bidi="normal" text-decoration="none" transform="matrix(1 0 0 1 2234.37 379)">120</text></g><g clip-path="url(#clip16)"><text fill="#595959" fill-opacity="1" font-family="Calibri,Calibri_MSFontService,sans-serif" font-style="normal" font-variant="normal" font-weight="400" font-stretch="normal" font-size="41" text-anchor="start" direction="ltr" writing-mode="lr-tb" unicode-bidi="normal" text-decoration="none" transform="matrix(1 0 0 1 2355.02 1267)">Jan</text></g><g clip-path="url(#clip17)"><text fill="#595959" fill-opacity="1" font-family="Calibri,Calibri_MSFontService,sans-serif" font-style="normal" font-variant="normal" font-weight="400" font-stretch="normal" font-size="41" text-anchor="start" direction="ltr" writing-mode="lr-tb" unicode-bidi="normal" text-decoration="none" transform="matrix(1 0 0 1 2445.71 1267)">Feb</text></g><g clip-path="url(#clip18)"><text fill="#595959" fill-opacity="1" font-family="Calibri,Calibri_MSFontService,sans-serif" font-style="normal" font-variant="normal" font-weight="400" font-stretch="normal" font-size="41" text-anchor="start" direction="ltr" writing-mode="lr-tb" unicode-bidi="normal" text-decoration="none" transform="matrix(1 0 0 1 2535.56 1267)">Mar</text></g><g clip-path="url(#clip19)"><text fill="#595959" fill-opacity="1" font-family="Calibri,Calibri_MSFontService,sans-serif" font-style="normal" font-variant="normal" font-weight="400" font-stretch="normal" font-size="41" text-anchor="start" direction="ltr" writing-mode="lr-tb" unicode-bidi="normal" text-decoration="none" transform="matrix(1 0 0 1 2634.27 1267)">Apr</text></g><g clip-path="url(#clip20)"><text fill="#595959" fill-opacity="1" font-family="Calibri,Calibri_MSFontService,sans-serif" font-style="normal" font-variant="normal" font-weight="400" font-stretch="normal" font-size="41" text-anchor="start" direction="ltr" writing-mode="lr-tb" unicode-bidi="normal" text-decoration="none" transform="matrix(1 0 0 1 2721.38 1267)">May</text></g><g clip-path="url(#clip21)"><text fill="#595959" fill-opacity="1" font-family="Calibri,Calibri_MSFontService,sans-serif" font-style="normal" font-variant="normal" font-weight="400" font-stretch="normal" font-size="41" text-anchor="start" direction="ltr" writing-mode="lr-tb" unicode-bidi="normal" text-decoration="none" transform="matrix(1 0 0 1 2823.95 1267)">Jun</text></g><g clip-path="url(#clip22)"><text fill="#595959" fill-opacity="1" font-family="Calibri,Calibri_MSFontService,sans-serif" font-style="normal" font-variant="normal" font-weight="400" font-stretch="normal" font-size="41" text-anchor="start" direction="ltr" writing-mode="lr-tb" unicode-bidi="normal" text-decoration="none" transform="matrix(1 0 0 1 2924.04 1267)">Jul</text></g><g clip-path="url(#clip23)"><text fill="#595959" fill-opacity="1" font-family="Calibri,Calibri_MSFontService,sans-serif" font-style="normal" font-variant="normal" font-weight="400" font-stretch="normal" font-size="41" text-anchor="start" direction="ltr" writing-mode="lr-tb" unicode-bidi="normal" text-decoration="none" transform="matrix(1 0 0 1 3007.68 1267)">Aug</text></g><g clip-path="url(#clip24)"><text fill="#595959" fill-opacity="1" font-family="Calibri,Calibri_MSFontService,sans-serif" font-style="normal" font-variant="normal" font-weight="400" font-stretch="normal" font-size="41" text-anchor="start" direction="ltr" writing-mode="lr-tb" unicode-bidi="normal" text-decoration="none" transform="matrix(1 0 0 1 3103.56 1267)">Sep</text></g><g clip-path="url(#clip25)"><text fill="#595959" fill-opacity="1" font-family="Calibri,Calibri_MSFontService,sans-serif" font-style="normal" font-variant="normal" font-weight="400" font-stretch="normal" font-size="41" text-anchor="start" direction="ltr" writing-mode="lr-tb" unicode-bidi="normal" text-decoration="none" transform="matrix(1 0 0 1 3198.84 1267)">Oct</text></g><g clip-path="url(#clip26)"><text fill="#595959" fill-opacity="1" font-family="Calibri,Calibri_MSFontService,sans-serif" font-style="normal" font-variant="normal" font-weight="400" font-stretch="normal" font-size="41" text-anchor="start" direction="ltr" writing-mode="lr-tb" unicode-bidi="normal" text-decoration="none" transform="matrix(1 0 0 1 3288.6 1267)">Nov</text></g><g clip-path="url(#clip27)"><text fill="#595959" fill-opacity="1" font-family="Calibri,Calibri_MSFontService,sans-serif" font-style="normal" font-variant="normal" font-weight="400" font-stretch="normal" font-size="41" text-anchor="start" direction="ltr" writing-mode="lr-tb" unicode-bidi="normal" text-decoration="none" transform="matrix(1 0 0 1 3384.41 1267)">Dec</text></g><g clip-path="url(#clip28)"><text fill="#595959" fill-opacity="1" font-family="Calibri,Calibri_MSFontService,sans-serif" font-style="normal" font-variant="normal" font-weight="400" font-stretch="normal" font-size="64" text-anchor="start" direction="ltr" writing-mode="lr-tb" unicode-bidi="normal" text-decoration="none" transform="matrix(1 0 0 1 2581.31 414)">Theater Outcomes by Launch Date</text></g><g clip-path="url(#clip29)"><path d="M3535 738 3623 738" stroke="#4472C4" stroke-width="10.3125" stroke-linecap="round" stroke-linejoin="round" stroke-miterlimit="10" stroke-opacity="1" fill="none" fill-rule="evenodd"/></g><g clip-path="url(#clip30)"><path d="M3589 737.499C3589 743.31 3584.07 748.021 3578 748.021 3571.93 748.021 3567 743.31 3567 737.499 3567 731.689 3571.93 726.978 3578 726.978 3584.07 726.978 3589 731.689 3589 737.499Z" stroke="#4472C4" stroke-width="3.4375" stroke-linecap="butt" stroke-linejoin="round" stroke-miterlimit="10" stroke-opacity="1" fill="#4472C4" fill-rule="nonzero" fill-opacity="1"/></g><g clip-path="url(#clip31)"><text fill="#595959" fill-opacity="1" font-family="Calibri,Calibri_MSFontService,sans-serif" font-style="normal" font-variant="normal" font-weight="400" font-stretch="normal" font-size="41" text-anchor="start" direction="ltr" writing-mode="lr-tb" unicode-bidi="normal" text-decoration="none" transform="matrix(1 0 0 1 3632.08 748)">successful</text></g><g clip-path="url(#clip32)"><path d="M3535 815 3623 815" stroke="#ED7D31" stroke-width="10.3125" stroke-linecap="round" stroke-linejoin="round" stroke-miterlimit="10" stroke-opacity="1" fill="none" fill-rule="evenodd"/></g><g clip-path="url(#clip33)"><path d="M3589 814.999C3589 821.075 3584.07 825.999 3578 825.999 3571.93 825.999 3567 821.075 3567 814.999 3567 808.924 3571.93 804 3578 804 3584.07 804 3589 808.924 3589 814.999Z" stroke="#ED7D31" stroke-width="3.4375" stroke-linecap="butt" stroke-linejoin="round" stroke-miterlimit="10" stroke-opacity="1" fill="#ED7D31" fill-rule="nonzero" fill-opacity="1"/></g><g clip-path="url(#clip34)"><text fill="#595959" fill-opacity="1" font-family="Calibri,Calibri_MSFontService,sans-serif" font-style="normal" font-variant="normal" font-weight="400" font-stretch="normal" font-size="41" text-anchor="start" direction="ltr" writing-mode="lr-tb" unicode-bidi="normal" text-decoration="none" transform="matrix(1 0 0 1 3632.08 826)">failed</text></g><g clip-path="url(#clip35)"><path d="M3535 893 3623 893" stroke="#A5A5A5" stroke-width="10.3125" stroke-linecap="round" stroke-linejoin="round" stroke-miterlimit="10" stroke-opacity="1" fill="none" fill-rule="evenodd"/></g><g clip-path="url(#clip36)"><path d="M3589 891.999C3589 898.075 3584.07 902.999 3578 902.999 3571.93 902.999 3567 898.075 3567 891.999 3567 885.924 3571.93 881 3578 881 3584.07 881 3589 885.924 3589 891.999Z" stroke="#A5A5A5" stroke-width="3.4375" stroke-linecap="butt" stroke-linejoin="round" stroke-miterlimit="10" stroke-opacity="1" fill="#A5A5A5" fill-rule="nonzero" fill-opacity="1"/></g><g clip-path="url(#clip37)"><text fill="#595959" fill-opacity="1" font-family="Calibri,Calibri_MSFontService,sans-serif" font-style="normal" font-variant="normal" font-weight="400" font-stretch="normal" font-size="41" text-anchor="start" direction="ltr" writing-mode="lr-tb" unicode-bidi="normal" text-decoration="none" transform="matrix(1 0 0 1 3632.08 903)">canceled</text></g><rect x="2205.5" y="319.5" width="1650" height="990" stroke="#D9D9D9" stroke-width="3.4375" stroke-linecap="butt" stroke-linejoin="round" stroke-miterlimit="10" stroke-opacity="1" fill="none"/></g></svg>